<?xml version='1.0' encoding='utf-8'?>
<!DOCTYPE svg>
<!-- Generator: Adobe Illustrator 16.0.0, SVG Export Plug-In . SVG Version: 6.00 Build 0)  -->
<svg xmlns="http://www.w3.org/2000/svg" enable-background="new 0 0 51.121 29.51" gorn="0" height="0.409861in" id="Layer_1" version="1.1" viewBox="0 0 51.121 29.51" width="0.710014in" x="0px" xml:space="preserve"  xmlns:xml="http://www.w3.org/XML/1998/namespace" y="0px">
    <desc>
        <referenceFile>sparkfun-electromechanical_relay-solidstate_schematic.svg</referenceFile>
    </desc>
    <g gorn="0.0" id="schematic" >
        <rect fill="#FFFFFF" height="21.601" stroke="#000000" stroke-linecap="round" stroke-linejoin="round" stroke-width="0.9" width="50.399" x="0.36"  y="0.36"/>
        <line fill="none" stroke="#000000" stroke-linecap="round" stroke-width="0.5" x1="17.64" x2="19.8"  y1="16.92" y2="16.92"/>
        <line fill="none" stroke="#000000" stroke-linecap="round" stroke-width="0.5" x1="19.8" x2="21.96"  y1="16.92" y2="16.92"/>
        <line fill="none" stroke="#000000" stroke-linecap="round" stroke-width="0.5" x1="21.96" x2="26.28"  y1="16.92" y2="16.92"/>
        <line fill="none" stroke="#000000" stroke-linecap="round" stroke-width="0.5" x1="17.64" x2="21.96"  y1="13.32" y2="13.32"/>
        <line fill="none" stroke="#000000" stroke-linecap="round" stroke-width="0.5" x1="21.96" x2="24.12"  y1="13.32" y2="13.32"/>
        <line fill="none" stroke="#000000" stroke-linecap="round" stroke-width="0.5" x1="24.12" x2="26.28"  y1="13.32" y2="13.32"/>
        <line fill="none" stroke="#000000" stroke-linecap="round" stroke-width="0.5" x1="19.8" x2="17.64"  y1="16.92" y2="13.32"/>
        <line fill="none" stroke="#000000" stroke-linecap="round" stroke-width="0.5" x1="19.8" x2="21.96"  y1="16.92" y2="13.32"/>
        <line fill="none" stroke="#000000" stroke-linecap="round" stroke-width="0.5" x1="21.96" x2="24.12"  y1="16.92" y2="13.32"/>
        <line fill="none" stroke="#000000" stroke-linecap="round" stroke-width="0.5" x1="24.12" x2="26.28"  y1="13.32" y2="16.92"/>
        <line fill="none" stroke="#000000" stroke-linecap="round" stroke-width="0.5" x1="21.96" x2="21.96"  y1="21.96" y2="16.92"/>
        <line fill="none" stroke="#000000" stroke-linecap="round" stroke-width="0.5" x1="7.56" x2="7.56"  y1="21.96" y2="7.56"/>
        <line fill="none" stroke="#000000" stroke-linecap="round" stroke-width="0.5" x1="7.56" x2="21.96"  y1="7.56" y2="7.56"/>
        <line fill="none" stroke="#000000" stroke-linecap="round" stroke-width="0.5" x1="21.96" x2="21.96"  y1="7.56" y2="13.32"/>
        <line fill="none" stroke="#000000" stroke-linecap="round" stroke-width="0.5" x1="34.201" x2="36.36"  y1="16.92" y2="16.92"/>
        <line fill="none" stroke="#000000" stroke-linecap="round" stroke-width="0.5" x1="36.36" x2="38.52"  y1="16.92" y2="16.92"/>
        <line fill="none" stroke="#000000" stroke-linecap="round" stroke-width="0.5" x1="34.201" x2="36.36"  y1="13.32" y2="13.32"/>
        <line fill="none" stroke="#000000" stroke-linecap="round" stroke-width="0.5" x1="36.36" x2="38.52"  y1="13.32" y2="13.32"/>
        <line fill="none" stroke="#000000" stroke-linecap="round" stroke-width="0.5" x1="34.201" x2="36.36"  y1="16.92" y2="13.32"/>
        <line fill="none" stroke="#000000" stroke-linecap="round" stroke-width="0.5" x1="36.36" x2="38.52"  y1="13.32" y2="16.92"/>
        <line fill="none" stroke="#000000" stroke-linecap="round" stroke-width="0.5" x1="36.36" x2="36.36"  y1="21.96" y2="16.92"/>
        <line fill="none" stroke="#000000" stroke-linecap="round" stroke-width="0.5" x1="36.36" x2="36.36"  y1="13.32" y2="7.56"/>
        <line fill="none" stroke="#000000" stroke-linecap="round" stroke-width="0.5" x1="36.36" x2="43.56"  y1="7.56" y2="7.56"/>
        <line fill="none" stroke="#000000" stroke-linecap="round" stroke-width="0.5" x1="43.56" x2="43.56"  y1="7.56" y2="21.96"/>
        <line fill="none" stroke="#000000" stroke-linecap="round" stroke-width="0.5" x1="32.041" x2="28.977"  y1="18.36" y2="15.297"/>
        <line fill="none" stroke="#000000" stroke-linecap="round" stroke-width="0.5" x1="32.4" x2="29.464"  y1="15.12" y2="12.185"/>
        <line fill="none" gorn="0.0.27" id="connector0pin" stroke="#787878" stroke-linecap="round" stroke-width="0.75" x1="7.56" x2="7.56"  y1="29.159" y2="21.96"/>
        <rect fill="none" height="0.015898" id="connector0terminal" stroke="none" stroke-width="0" width="0.0015" x="7.93425" y="14.7141"/>
        <rect fill="none" gorn="0.0.28" height="0.001" id="" width="0" x="7.56"  y="29.159"/>
        <g transform="translate(2.29658,9.017)" >
            <g >
                <g transform="rotate(270)" >
                    <g >
                        <g transform="matrix(1 0 0 1 -17.2323 4.2137)" >
                            <text fill="#8C8C8C" font-family="Noto Sans" font-size="2.5" >1</text>
                        </g>
                    </g>
                </g>
            </g>
        </g>
        <line fill="none" gorn="0.0.30" id="connector1pin" stroke="#787878" stroke-linecap="round" stroke-width="0.75" x1="21.96" x2="21.96"  y1="29.159" y2="21.96"/>
        <rect fill="none" gorn="0.0.31" height="0.001" id="connector1terminal" width="0" x="21.96"  y="29.159"/>
        <g transform="translate(7.37658,9.017)" >
            <g >
                <g transform="rotate(270)" >
                    <g >
                        <g transform="matrix(1 0 0 1 -17.2323 13.5331)" >
                            <text fill="#8C8C8C" font-family="Noto Sans" font-size="2.5" >2</text>
                        </g>
                    </g>
                </g>
            </g>
        </g>
        <line fill="none" gorn="0.0.33" id="connector2pin" stroke="#787878" stroke-linecap="round" stroke-width="0.75" x1="36.36" x2="36.36"  y1="29.159" y2="21.96"/>
        <rect fill="none" gorn="0.0.34" height="0.001" id="connector2terminal" width="0.001" x="36.36"  y="29.159"/>
        <g transform="translate(12.4566,9.017)" >
            <g >
                <g transform="rotate(270)" >
                    <g >
                        <g transform="matrix(1 0 0 1 -17.2323 22.8535)" >
                            <text fill="#8C8C8C" font-family="Noto Sans" font-size="2.5" >3</text>
                        </g>
                    </g>
                </g>
            </g>
        </g>
        <line fill="none" gorn="0.0.36" id="connector3pin" stroke="#787878" stroke-linecap="round" stroke-width="0.75" x1="43.56" x2="43.56"  y1="29.159" y2="21.96"/>
        <rect fill="none" gorn="0.0.37" height="0.001" id="connector3terminal" width="0" x="43.56"  y="29.159"/>
        <g transform="translate(14.9966,9.017)" >
            <g >
                <g transform="rotate(270)" >
                    <g >
                        <g transform="matrix(1 0 0 1 -17.2323 27.5136)" >
                            <text fill="#8C8C8C" font-family="Noto Sans" font-size="2.5" >4</text>
                        </g>
                    </g>
                </g>
            </g>
        </g>
        <path d="M28.08,14.4l1.08,2.521l1.44-1.44L28.08,14.4z" />
        <path d="M28.44,11.16l1.08,2.52l1.44-1.44L28.44,11.16z" />
    </g>
</svg>
