<?xml version="1.0" standalone="no"?>
<!DOCTYPE svg PUBLIC "-//W3C//DTD SVG 20010904//EN"
 "http://www.w3.org/TR/2001/REC-SVG-20010904/DTD/svg10.dtd">
<svg version="1.0" xmlns="http://www.w3.org/2000/svg"
 width="1024.000000pt" height="1024.000000pt" viewBox="0 0 1024.000000 1024.000000"
 preserveAspectRatio="xMidYMid meet">
<metadata>
Created by potrace 1.16, written by Peter Selinger 2001-2019
</metadata>
<g transform="translate(0.000000,1024.000000) scale(0.100000,-0.100000)"
fill="#000000" stroke="none">
<path d="M4930 8934 c-492 -35 -982 -165 -1425 -378 -952 -457 -1673 -1272
-2000 -2261 -365 -1104 -199 -2347 443 -3314 576 -867 1472 -1472 2477 -1670
674 -133 1333 -95 1984 114 856 276 1638 897 2111 1677 296 487 482 1046 541
1628 19 177 16 586 -5 770 -98 862 -452 1623 -1042 2239 -441 460 -997 811
-1591 1005 -431 140 -707 185 -1153 190 -157 2 -310 2 -340 0z m550 -504 c627
-56 1228 -282 1719 -645 343 -254 603 -525 830 -865 364 -548 551 -1170 551
-1835 0 -738 -253 -1463 -711 -2044 l-82 -103 -664 664 -664 664 35 70 c51
102 74 178 117 394 60 304 83 359 252 600 52 74 116 172 142 218 26 45 49 82
51 82 5 0 123 -85 189 -135 l60 -47 -60 57 c-33 31 -88 77 -122 102 l-61 46
24 66 c14 36 27 71 29 78 3 11 182 -48 290 -96 25 -11 45 -18 45 -15 0 8 -174
87 -250 114 -36 13 -68 26 -73 30 -4 3 0 38 9 76 l15 71 92 -14 c127 -19 134
-10 8 13 l-103 18 5 59 c11 119 -20 233 -94 348 -16 25 -29 59 -29 75 0 16 22
94 49 174 94 279 131 438 131 567 0 83 -14 126 -44 131 -65 13 -163 -47 -386
-236 -85 -72 -169 -139 -187 -148 -30 -17 -35 -16 -164 16 -104 25 -162 34
-264 38 -80 3 -140 10 -157 18 -38 20 -63 56 -170 247 -147 263 -227 357 -303
357 -47 0 -80 -32 -119 -113 -67 -139 -101 -315 -111 -572 -10 -278 -13 -288
-93 -431 -28 -49 -76 -149 -106 -221 -84 -204 -172 -320 -276 -363 l-32 -13
-869 869 c-478 478 -869 874 -869 880 0 27 336 256 532 362 369 200 834 343
1238 381 63 6 131 13 150 14 83 8 394 6 500 -3z m146 -948 c42 -55 121 -215
158 -321 l26 -73 -54 50 c-53 47 -111 82 -166 97 -22 6 -20 3 13 -25 30 -26
103 -119 130 -166 4 -6 -20 -1 -54 13 -38 15 -74 23 -100 21 l-40 -3 52 -35
c28 -19 58 -45 66 -57 14 -21 14 -21 -39 -21 -56 2 -98 -8 -98 -22 0 -4 10
-10 23 -14 12 -3 37 -15 56 -27 l35 -21 -50 -30 c-27 -17 -77 -53 -111 -80
l-63 -50 -11 29 c-20 52 -38 177 -39 269 0 212 84 507 153 533 31 12 70 -11
113 -67z m-1502 -1624 c-3 -4 -11 -8 -19 -8 -26 0 -211 -100 -280 -152 -196
-147 -395 -397 -528 -663 -150 -301 -223 -609 -236 -995 l-6 -185 -32 66 c-46
94 -63 169 -63 280 0 109 13 182 61 344 27 91 33 127 34 207 0 83 -3 101 -21
125 -54 73 -137 93 -221 52 -104 -50 -187 -221 -228 -467 -24 -140 -17 -382
14 -497 29 -112 108 -265 186 -362 70 -87 190 -196 292 -266 34 -23 63 -47 63
-54 0 -29 62 -190 95 -251 21 -37 64 -102 96 -144 39 -51 59 -87 59 -105 0
-92 55 -165 164 -218 97 -48 213 -75 526 -125 316 -49 419 -71 565 -117 174
-54 279 -47 334 23 25 32 26 60 4 116 -52 134 -132 194 -306 228 -57 11 -58
12 -43 33 108 149 134 343 77 568 -34 135 -61 200 -130 307 -61 95 -190 221
-281 276 -58 34 -61 37 -30 32 19 -4 68 -23 110 -43 92 -46 225 -174 283 -273
80 -139 130 -320 140 -510 l5 -95 147 -335 c175 -399 194 -437 254 -493 70
-66 144 -90 251 -84 96 6 142 22 196 69 120 105 70 277 -101 353 -42 18 -55
29 -63 56 -27 84 -37 184 -37 374 0 273 27 387 122 512 41 55 143 142 196 169
28 14 24 8 -24 -42 -123 -128 -174 -211 -209 -336 -29 -104 -43 -315 -30 -458
17 -196 18 -199 115 -225 148 -38 290 7 336 108 51 113 -11 219 -155 267 -37
12 -71 30 -76 40 -30 55 27 380 98 564 44 113 91 175 201 264 l98 80 648 -648
648 -648 -33 -29 c-409 -347 -846 -572 -1365 -703 -290 -73 -438 -92 -760 -98
-373 -6 -585 18 -920 103 -809 205 -1513 712 -1994 1435 -501 755 -665 1730
-440 2624 124 494 371 970 697 1343 l65 75 728 -728 c400 -400 726 -731 723
-736z m3022 1366 c22 -87 -53 -413 -140 -608 l-27 -60 -37 64 c-20 35 -59 88
-86 117 -30 34 -45 58 -40 63 6 6 38 10 72 11 34 1 62 3 62 5 0 10 -55 37 -97
49 l-48 13 66 30 c36 17 78 34 92 38 15 3 24 10 21 15 -7 12 -101 11 -143 -1
-19 -5 -37 -8 -39 -5 -8 8 189 205 252 251 67 51 83 54 92 18z m-1176 -589
c66 -34 111 -138 96 -220 -6 -29 -12 -36 -44 -45 -116 -32 -243 6 -299 89 -41
61 -25 120 44 162 64 40 142 45 203 14z m775 -114 c81 -36 122 -118 91 -179
-37 -72 -149 -100 -248 -63 -75 29 -80 36 -68 102 13 68 44 114 95 139 49 25
78 25 130 1z m-312 -286 c75 -35 70 -87 -7 -83 -40 3 -41 2 -44 -32 -6 -63
-51 -90 -87 -50 -13 14 -16 28 -11 54 8 43 -14 69 -50 60 -27 -7 -82 22 -68
36 5 5 23 16 39 25 40 22 174 16 228 -10z m-905 -96 c178 -19 408 -71 397 -89
-2 -4 -56 5 -119 21 -128 31 -271 56 -391 68 -62 7 -69 9 -32 10 26 0 91 -4
145 -10z m1590 -146 c11 -4 -78 -8 -199 -8 -120 0 -219 3 -219 7 0 4 19 9 43
11 62 7 350 -1 375 -10z m-1258 -2 c0 -4 -93 -12 -207 -19 -115 -6 -268 -21
-342 -32 -74 -11 -136 -19 -138 -17 -11 11 328 62 462 70 102 6 225 5 225 -2z
m517 -108 c21 -25 57 -61 82 -79 32 -25 39 -34 25 -34 -26 0 -58 22 -126 88
l-56 55 -29 -20 c-53 -38 -129 -71 -178 -78 -59 -9 -54 2 12 24 57 20 154 83
186 120 l22 27 12 -28 c7 -16 29 -50 50 -75z m-492 27 c-3 -5 -13 -10 -21 -10
-36 0 -381 -122 -487 -173 -65 -31 -115 -52 -112 -48 7 13 221 116 315 152 92
36 264 87 293 88 10 1 15 -3 12 -9z m970 -9 c97 -21 259 -70 253 -77 -4 -4
-370 85 -377 92 -9 9 38 3 124 -15z m-62 -92 c96 -49 229 -132 249 -157 11
-14 8 -13 -17 3 -70 44 -182 108 -256 145 -43 22 -79 42 -79 45 0 12 25 3 103
-36z"/>
<path d="M5885 6597 c-9 -15 -21 -44 -26 -64 -10 -41 -2 -120 12 -129 15 -9
59 97 59 142 0 22 -6 49 -14 59 -13 18 -14 17 -31 -8z"/>
<path d="M6649 6471 c-9 -29 -10 -58 -3 -99 12 -75 33 -77 53 -5 11 43 11 58
0 94 -18 56 -35 60 -50 10z"/>
</g>
</svg>
